<svg width="185" height="185" viewBox="0 0 185 185" fill="none" xmlns="http://www.w3.org/2000/svg">
<g filter="url(#filter0_d_21_112)">
<path d="M29.9211 151.079C15.4431 136.601 6.43304 117.551 4.42615 97.1745C2.41925 76.7982 7.53967 56.3563 18.9149 39.332C30.2902 22.3078 47.2165 9.75435 66.8098 3.81079C86.4031 -2.13278 107.451 -1.09876 126.367 6.73665C145.284 14.5721 160.898 28.7241 170.55 46.7814C180.202 64.8386 183.294 85.6839 179.3 105.765C175.305 125.847 164.471 143.922 148.644 156.911C132.817 169.901 112.975 177 92.5001 177L92.5 148.908C106.476 148.908 120.019 144.062 130.822 135.196C141.626 126.33 149.021 113.992 151.747 100.285C154.474 86.5778 152.363 72.3493 145.775 60.0239C139.187 47.6985 128.529 38.0387 115.617 32.6904C102.705 27.3422 88.3384 26.6364 74.9645 30.6933C61.5906 34.7502 50.0372 43.3189 42.2727 54.9392C34.5082 66.5596 31.0132 80.5126 32.383 94.421C33.7529 108.329 39.9029 121.333 49.7852 131.215L29.9211 151.079Z" fill="url(#paint0_angular_21_112)"/>
<circle cx="92" cy="163" r="14" fill="#A9701C"/>
<circle cx="40" cy="141" r="14" fill="#A9701C"/>
</g>
<defs>
<filter id="filter0_d_21_112" x="-0.00012207" y="-1.52588e-05" width="185" height="185" filterUnits="userSpaceOnUse" color-interpolation-filters="sRGB">
<feFlood flood-opacity="0" result="BackgroundImageFix"/>
<feColorMatrix in="SourceAlpha" type="matrix" values="0 0 0 0 0 0 0 0 0 0 0 0 0 0 0 0 0 0 127 0" result="hardAlpha"/>
<feOffset dy="4"/>
<feGaussianBlur stdDeviation="2"/>
<feComposite in2="hardAlpha" operator="out"/>
<feColorMatrix type="matrix" values="0 0 0 0 0 0 0 0 0 0 0 0 0 0 0 0 0 0 0.25 0"/>
<feBlend mode="normal" in2="BackgroundImageFix" result="effect1_dropShadow_21_112"/>
<feBlend mode="normal" in="SourceGraphic" in2="effect1_dropShadow_21_112" result="shape"/>
</filter>
<radialGradient id="paint0_angular_21_112" cx="0" cy="0" r="1" gradientUnits="userSpaceOnUse" gradientTransform="translate(92.5 88.5) rotate(112.38) scale(82.7315)">
<stop offset="0.348859" stop-color="#FF9D0B"/>
<stop offset="0.6875" stop-color="#FF9D0B"/>
<stop offset="1" stop-color="#8B6122"/>
</radialGradient>
</defs>
</svg>
